# Blender v2.68 (sub 0) OBJ File: 'BoxRoom.blend'
# www.blender.org
g BoxRoomOpen1_Open1
v 10.000000 -10.000000 -10.000000
v 10.000000 -10.000000 10.000000
v -10.000000 -10.000000 10.000000
v -10.000000 -10.000000 -10.000000
v 10.000000 10.000000 -10.000000
v 10.000000 10.000000 10.000000
v -10.000000 10.000000 10.000000
v -10.000000 10.000000 -10.000000
vt 0.500000 0.500000
vt 0.500000 0.000000
vt 1.000000 0.000000
vt 1.000000 0.500000
vt 0.000000 0.000000
vt 0.000000 0.500000
vt 1.000000 1.000000
vt 0.500000 1.000000
vt 0.000000 1.000000
vn -1.000000 0.000000 -0.000000
vn 0.000000 0.000000 -1.000000
vn 0.000000 0.000000 1.000000
vn 0.000000 1.000000 0.000000
vn 0.000000 -1.000000 -0.000000
s off
f 5/1/1 1/2/1 2/3/1 6/4/1
f 6/1/2 2/2/2 3/3/2 7/4/2
f 8/1/3 4/2/3 1/5/3 5/6/3
f 1/1/4 4/4/4 3/7/4 2/8/4
f 8/1/5 5/6/5 6/9/5 7/8/5
g BoxRoomOpen2_Open2
v 10.000000 -10.000000 -10.000000
v 10.000000 -10.000000 10.000000
v -10.000000 -10.000000 10.000000
v -10.000000 -10.000000 -10.000000
v 10.000000 10.000000 -10.000000
v 10.000000 10.000000 10.000000
v -10.000000 10.000000 10.000000
v -10.000000 10.000000 -10.000000
vt 0.500000 0.500000
vt 0.500000 0.000000
vt 1.000000 0.000000
vt 1.000000 0.500000
vt 0.000000 0.000000
vt 0.000000 0.500000
vt 1.000000 1.000000
vt 0.500000 1.000000
vt 0.000000 1.000000
s off
f 14/10/2 10/11/2 11/12/2 15/13/2
f 16/10/3 12/11/3 9/14/3 13/15/3
f 9/10/4 12/13/4 11/16/4 10/17/4
f 16/10/5 13/15/5 14/18/5 15/17/5
g BoxRoom_Closed
v 10.000000 -10.000000 -10.000000
v 10.000000 -10.000000 10.000000
v -10.000000 -10.000000 10.000000
v -10.000000 -10.000000 -10.000000
v 10.000000 10.000000 -10.000000
v 10.000000 10.000000 10.000000
v -10.000000 10.000000 10.000000
v -10.000000 10.000000 -10.000000
vt 0.500000 0.500000
vt 0.500000 0.000000
vt 1.000000 0.000000
vt 1.000000 0.500000
vt 0.000000 0.000000
vt 0.000000 0.500000
vt 1.000000 1.000000
vt 0.500000 1.000000
vt 0.000000 1.000000
vn 1.000000 0.000000 -0.000000
s off
f 21/19/1 17/20/1 18/21/1 22/22/1
f 22/19/2 18/20/2 19/21/2 23/22/2
f 23/19/6 19/20/6 20/23/6 24/24/6
f 24/19/3 20/20/3 17/23/3 21/24/3
f 17/19/4 20/22/4 19/25/4 18/26/4
f 24/19/5 21/24/5 22/27/5 23/26/5
